<?xml version="1.0" encoding="utf-8"?>
<svg xmlns="http://www.w3.org/2000/svg" preserveAspectRatio="xMidYMid meet" viewBox="0 0 600 600">
<g>
<rect fill="none" height="402" width="582" y="-1" x="-1"/>
</g>
<g>
<g transform="translate(0,600) scale(0.10000000149011612,-0.10000000149011612)">
<path stroke="null" d="m520,3615.546202c-45,-10.567308 -77,-26.418269 -101,-50.723076c-18,-19.021154 -19,-38.042307 -19,-490.32307c0,-452.280763 1,-471.301916 19,-490.32307c24,-24.833173 56,-40.684134 103,-51.251442c33,-6.86875 300,-7.925481 2498,-7.925481c2198,0 2465,1.056731 2498,7.925481c47,10.567308 79,26.418269 103,51.251442c18,19.021154 19,38.042307 19,490.32307c0,452.280763 -1,471.301916 -19,490.32307c-24,24.833173 -56,40.684134 -103,51.251442c-33,6.86875 -299,7.925481 -2500,7.925481c-2177,-0.528365 -2467,-1.585096 -2498,-8.453846z"/>
</g>
</g>
</svg>
