<?xml version="1.0" encoding="utf-8"?>
<svg version="1.0" xmlns="http://www.w3.org/2000/svg" viewBox="0 0 300.000000 300.000000" preserveAspectRatio="xMidYMid meet">
<g transform="translate(0.000000,300.000000) scale(0.100000,-0.100000)" stroke="none">
<path d="M198 2960 c-48 -14 -86 -49 -112 -102 l-26 -52 0 -1308 c0 -1159 2 -1313 15 -1346 21 -49 52 -81 100 -103 38 -18 89 -19 1040 -19 949 0 1002 1 1040 19 49 22 91 69 105 119 7 24 10 160 8 392 l-3 354 -102 -183 -103 -184 0 -154 0 -153 -945 0 -945 0 0 1260 0 1260 945 0 945 0 2 -572 3 -573 103 184 102 184 0 411 0 412 -25 51 c-16 32 -41 61 -67 79 l-41 29 -1006 2 c-553 1 -1018 -2 -1033 -7z"/>
<path d="M450 2355 l0 -75 585 0 585 0 0 75 0 75 -585 0 -585 0 0 -75z"/>
<path d="M2683 2198 c-5 -7 -24 -38 -42 -70 l-31 -56 105 -60 105 -61 41 70 c22 39 39 72 37 73 -6 6 -200 116 -203 116 -1 0 -7 -6 -12 -12z"/>
<path d="M450 1995 l0 -75 765 0 765 0 0 75 0 75 -765 0 -765 0 0 -75z"/>
<path d="M2502 1908 c-27 -46 -195 -336 -375 -644 l-327 -562 0 -125 0 -126 108 65 108 64 373 646 c205 355 372 646 370 648 -11 9 -199 116 -203 116 -3 0 -27 -37 -54 -82z"/>
<path d="M450 1665 l0 -75 585 0 585 0 0 75 0 75 -585 0 -585 0 0 -75z"/>
<path d="M450 1305 l0 -75 765 0 765 0 0 75 0 75 -765 0 -765 0 0 -75z"/>
<path d="M450 975 l0 -75 585 0 585 0 0 75 0 75 -585 0 -585 0 0 -75z"/>
<path d="M540 689 c-64 -27 -108 -100 -96 -164 24 -124 201 -159 266 -52 24 38 26 106 5 147 -30 58 -118 93 -175 69z"/>
<path d="M1005 685 c-72 -25 -113 -100 -94 -170 32 -115 170 -149 247 -61 43 49 49 97 20 154 -35 71 -103 101 -173 77z"/>
</g>
</svg>
