<?xml version="1.0" standalone="no"?>
<!DOCTYPE svg PUBLIC "-//W3C//DTD SVG 1.1//EN"
 "http://www.w3.org/Graphics/SVG/1.1/DTD/svg11.dtd">
<!-- Created with svg_stack (http://github.com/astraw/svg_stack) -->
<svg xmlns:sodipodi="http://sodipodi.sourceforge.net/DTD/sodipodi-0.dtd" xmlns:xlink="http://www.w3.org/1999/xlink" xmlns="http://www.w3.org/2000/svg" version="1.1" width="500.0" height="1000.0">
  <defs/>
  <g id="id0:id0" transform="matrix(1.0,0,0,1.0,0.0,0.0)"><g>
	<path d="M391.667,200h-8.334V100c0-55.141-44.858-100-100-100h-66.667c-55.141,0-100,44.859-100,100v100h-8.333   c-13.75,0-25,11.25-25,25v250c0,13.75,11.25,25,25,25h283.333c13.75,0,25-11.25,25-25V225C416.667,211.25,405.417,200,391.667,200z    M283.333,433.333h-66.667l14.5-72.5c-8.754-6.007-14.5-16.08-14.5-27.5C216.667,314.924,231.591,300,250,300   s33.333,14.924,33.333,33.333c0,11.42-5.745,21.493-14.5,27.5L283.333,433.333z M316.667,200H183.333V100   c0-18.38,14.953-33.333,33.333-33.333h66.667c18.38,0,33.334,14.953,33.334,33.333V200z"/>
</g>
<g>
</g>
<g>
</g>
<g>
</g>
<g>
</g>
<g>
</g>
<g>
</g>
<g>
</g>
<g>
</g>
<g>
</g>
<g>
</g>
<g>
</g>
<g>
</g>
<g>
</g>
<g>
</g>
<g>
</g>
</g>
  <g id="id1:id1" transform="matrix(1.0,0,0,1.0,0.0,500.0)"><g>
	<path d="M400,0h-66.667c-55.141,0-100,44.859-100,100v100H25c-13.75,0-25,11.25-25,25v250c0,13.75,11.25,25,25,25h283.333   c13.751,0,25-11.25,25-25V225c0-13.75-11.249-25-25-25H300V100c0-18.38,14.953-33.333,33.333-33.333H400   c18.38,0,33.333,14.953,33.333,33.333v100H500V100C500,44.859,455.141,0,400,0z M200,433.333h-66.667l14.5-72.5   c-8.754-6.007-14.5-16.08-14.5-27.5c0-18.409,14.924-33.333,33.333-33.333S200,314.924,200,333.333c0,11.42-5.746,21.493-14.5,27.5   L200,433.333z"/>
</g>
<g>
</g>
<g>
</g>
<g>
</g>
<g>
</g>
<g>
</g>
<g>
</g>
<g>
</g>
<g>
</g>
<g>
</g>
<g>
</g>
<g>
</g>
<g>
</g>
<g>
</g>
<g>
</g>
<g>
</g>
</g>
</svg>
