<?xml version="1.0"?>
<!--Icons from directory ""-->
<svg xmlns="http://www.w3.org/2000/svg" width="300" height="600" viewBox="0 0 300 600"><svg width="300" height="300" viewBox="0 0 1792 1792" id="lock" y="0"><path d="M640 768h512V576q0-106-75-181t-181-75-181 75-75 181v192zm832 96v576q0 40-28 68t-68 28H416q-40 0-68-28t-28-68V864q0-40 28-68t68-28h32V576q0-184 132-316t316-132 316 132 132 316v192h32q40 0 68 28t28 68z"/></svg><svg width="300" height="300" viewBox="0 0 1792 1792" id="unlock" y="300"><path d="M1728 576v256q0 26-19 45t-45 19h-64q-26 0-45-19t-19-45V576q0-106-75-181t-181-75-181 75-75 181v192h96q40 0 68 28t28 68v576q0 40-28 68t-68 28H160q-40 0-68-28t-28-68V864q0-40 28-68t68-28h672V576q0-185 131.5-316.5T1280 128t316.5 131.5T1728 576z"/></svg></svg>
