<svg id="svg" version="1.1" xmlns="http://www.w3.org/2000/svg" xmlns:xlink="http://www.w3.org/1999/xlink" width="32" height="32" viewBox="0, 0, 400,376"><g id="svgg"><path id="path0" d="M180.677 14.993 C 180.784 15.795,180.566 16.193,180.151 15.954 C 179.892 15.805,179.801 15.818,179.949 15.982 C 180.242 16.306,178.602 19.386,177.617 20.360 C 177.281 20.692,176.447 21.835,175.764 22.899 C 175.081 23.964,174.360 24.835,174.162 24.835 C 173.965 24.835,173.902 24.995,174.023 25.191 C 174.309 25.654,171.997 29.415,171.584 29.159 C 171.410 29.052,171.159 29.305,171.027 29.722 C 170.895 30.139,170.621 30.480,170.419 30.480 C 170.217 30.480,170.101 30.776,170.162 31.138 C 170.227 31.525,170.067 31.754,169.774 31.693 C 169.477 31.632,169.386 31.768,169.550 32.033 C 169.702 32.279,169.536 32.686,169.176 32.948 C 168.821 33.209,168.583 33.479,168.649 33.550 C 168.883 33.803,166.534 37.196,166.247 37.019 C 166.086 36.919,166.047 37.080,166.161 37.377 C 166.378 37.942,164.583 40.141,164.032 39.986 C 163.858 39.936,163.799 40.117,163.903 40.386 C 164.006 40.656,163.704 41.309,163.231 41.836 C 162.758 42.364,162.324 43.030,162.266 43.317 C 162.061 44.338,161.311 45.502,160.988 45.303 C 160.807 45.191,160.683 45.239,160.713 45.409 C 160.845 46.171,160.646 46.685,160.301 46.472 C 160.094 46.344,159.925 46.594,159.925 47.026 C 159.925 47.459,159.672 47.910,159.362 48.029 C 159.053 48.147,158.894 48.396,159.008 48.581 C 159.123 48.767,159.033 48.918,158.809 48.918 C 158.584 48.918,158.240 49.341,158.043 49.859 C 157.847 50.376,157.484 50.800,157.237 50.800 C 156.991 50.800,156.894 50.905,157.023 51.033 C 157.151 51.162,156.611 52.220,155.823 53.385 C 155.034 54.550,154.115 56.038,153.779 56.691 C 153.444 57.344,152.944 58.106,152.669 58.384 C 152.394 58.662,151.740 59.524,151.216 60.299 C 150.691 61.074,150.123 61.582,149.953 61.428 C 149.783 61.274,149.736 61.317,149.848 61.524 C 150.138 62.057,149.464 63.685,149.058 63.434 C 148.873 63.319,148.744 63.520,148.772 63.880 C 148.801 64.242,148.601 64.488,148.326 64.431 C 148.052 64.374,147.935 64.502,148.067 64.716 C 148.322 65.128,147.044 67.216,146.038 68.031 C 145.708 68.299,145.437 68.638,145.437 68.784 C 145.437 69.236,143.197 72.623,142.897 72.624 C 142.742 72.624,142.615 72.879,142.615 73.189 C 142.615 73.500,142.436 73.754,142.217 73.754 C 141.998 73.754,141.924 73.924,142.053 74.133 C 142.182 74.342,141.895 74.670,141.416 74.862 C 140.938 75.054,140.771 75.222,141.047 75.235 C 141.698 75.266,141.394 76.199,140.734 76.199 C 140.458 76.199,140.154 76.435,140.058 76.722 C 139.947 77.055,140.048 77.143,140.336 76.965 C 140.653 76.770,140.639 76.926,140.292 77.482 C 140.018 77.920,139.574 78.193,139.304 78.090 C 139.034 77.986,138.899 78.040,139.004 78.211 C 139.109 78.381,138.779 79.132,138.271 79.880 C 137.763 80.628,137.347 81.341,137.347 81.465 C 137.347 81.588,136.500 82.944,135.466 84.478 C 134.431 86.011,133.584 87.443,133.584 87.659 C 133.584 88.025,133.051 88.210,132.343 88.091 C 132.178 88.064,132.090 88.255,132.146 88.517 C 132.291 89.187,130.522 92.204,130.128 91.960 C 129.949 91.850,129.849 91.907,129.906 92.088 C 130.080 92.639,128.275 95.865,126.974 97.327 C 126.299 98.086,125.524 99.146,125.252 99.683 C 124.981 100.219,124.045 101.722,123.172 103.023 C 122.299 104.323,121.476 105.733,121.342 106.155 C 121.201 106.598,120.883 106.839,120.587 106.726 C 120.258 106.599,120.150 106.722,120.284 107.072 C 120.414 107.409,120.157 107.750,119.607 107.970 C 119.119 108.165,118.934 108.336,119.195 108.349 C 119.731 108.376,117.129 112.512,116.576 112.512 C 116.386 112.512,116.336 112.682,116.464 112.891 C 116.712 113.291,115.567 115.127,114.169 116.573 C 113.710 117.047,113.055 118.025,112.713 118.745 C 112.351 119.510,111.920 119.949,111.679 119.800 C 111.429 119.645,111.374 119.719,111.539 119.986 C 111.872 120.525,110.327 123.137,109.850 122.843 C 109.663 122.727,109.597 122.859,109.703 123.136 C 109.809 123.412,109.596 123.978,109.228 124.393 C 108.861 124.808,108.518 125.352,108.467 125.603 C 108.415 125.853,108.076 126.357,107.714 126.722 C 107.352 127.086,106.378 128.440,105.550 129.729 C 104.152 131.906,103.347 132.554,103.042 131.747 C 102.973 131.564,100.249 130.121,96.990 128.539 C 93.730 126.957,91.063 125.529,91.063 125.366 C 91.063 125.202,90.470 124.786,89.746 124.441 C 89.022 124.095,88.429 123.641,88.429 123.430 C 88.429 123.220,88.250 123.048,88.030 123.048 C 87.811 123.048,87.735 123.215,87.862 123.420 C 87.994 123.633,87.843 123.696,87.508 123.568 C 87.187 123.445,86.924 123.193,86.924 123.008 C 86.924 122.823,86.797 122.692,86.642 122.716 C 85.864 122.839,85.462 122.621,85.635 122.170 C 85.742 121.889,85.579 121.668,85.263 121.668 C 84.953 121.668,84.773 121.788,84.864 121.935 C 84.955 122.082,83.762 121.590,82.213 120.842 C 80.665 120.094,79.398 119.258,79.398 118.985 C 79.398 118.712,79.229 118.593,79.022 118.721 C 78.815 118.849,78.645 118.774,78.645 118.555 C 78.645 118.335,78.518 118.196,78.363 118.246 C 78.049 118.345,75.554 117.380,75.259 117.045 C 75.155 116.927,74.188 116.426,73.109 115.931 C 72.030 115.435,71.253 114.858,71.383 114.648 C 71.520 114.425,71.382 114.356,71.051 114.483 C 70.268 114.784,67.357 113.425,67.357 112.759 C 67.357 112.256,66.550 111.704,65.663 111.600 C 64.751 111.493,63.594 110.924,63.594 110.583 C 63.594 110.377,63.440 110.305,63.251 110.421 C 62.727 110.745,61.684 110.227,61.961 109.780 C 62.097 109.559,62.026 109.496,61.798 109.636 C 61.408 109.878,56.888 107.766,56.405 107.117 C 56.277 106.945,56.064 106.818,55.932 106.835 C 55.220 106.930,54.939 106.827,54.939 106.469 C 54.939 106.250,55.134 106.191,55.373 106.339 C 55.646 106.507,55.705 106.442,55.533 106.163 C 55.382 105.919,55.059 105.741,54.816 105.769 C 54.080 105.854,52.681 105.298,52.681 104.920 C 52.681 104.725,52.531 104.658,52.347 104.771 C 52.164 104.885,51.805 104.725,51.549 104.417 C 51.293 104.109,50.778 103.857,50.404 103.857 C 50.030 103.857,49.471 103.603,49.160 103.293 C 48.850 102.982,48.372 102.721,48.098 102.712 C 47.825 102.704,47.008 102.355,46.284 101.937 C 45.560 101.519,45.272 101.270,45.645 101.384 C 46.065 101.512,46.230 101.439,46.077 101.193 C 45.942 100.974,45.595 100.886,45.305 100.997 C 44.615 101.262,43.596 100.862,43.863 100.431 C 43.977 100.246,43.797 100.094,43.462 100.094 C 43.097 100.094,42.961 99.920,43.122 99.660 C 43.296 99.377,43.224 99.328,42.914 99.520 C 42.636 99.691,42.304 99.598,42.117 99.296 C 41.941 99.010,41.493 98.760,41.121 98.739 C 40.126 98.682,34.600 95.914,34.809 95.576 C 34.907 95.417,34.777 95.299,34.521 95.314 C 33.815 95.354,31.609 94.417,31.609 94.077 C 31.609 93.913,31.185 93.672,30.668 93.543 C 30.122 93.405,29.725 93.033,29.721 92.655 C 29.717 92.159,29.641 92.122,29.400 92.502 C 29.145 92.904,28.965 92.881,28.465 92.381 C 27.890 91.806,27.846 100.065,27.846 207.309 L 27.846 322.855 30.647 323.679 C 32.194 324.134,33.348 324.667,33.223 324.869 C 33.099 325.070,33.190 325.115,33.424 324.970 C 33.659 324.825,34.538 324.912,35.377 325.164 C 36.409 325.473,36.747 325.720,36.420 325.928 C 36.074 326.148,36.150 326.245,36.689 326.270 C 38.327 326.345,41.273 327.228,42.109 327.895 C 42.399 328.126,42.698 328.261,42.773 328.193 C 42.849 328.126,43.438 328.187,44.083 328.328 C 44.980 328.526,45.133 328.672,44.735 328.952 C 44.371 329.208,44.535 329.248,45.281 329.084 C 46.054 328.915,46.271 328.974,46.069 329.300 C 45.909 329.559,45.951 329.651,46.167 329.517 C 46.737 329.165,49.395 330.007,49.929 330.708 C 50.231 331.105,50.404 331.158,50.411 330.856 C 50.418 330.597,50.603 330.386,50.822 330.386 C 51.041 330.386,51.117 330.553,50.990 330.758 C 50.864 330.962,50.994 331.040,51.280 330.930 C 52.107 330.613,53.901 331.438,53.572 331.984 C 53.407 332.260,53.583 332.221,53.998 331.891 C 54.388 331.580,54.605 331.498,54.480 331.707 C 54.347 331.929,55.801 332.533,57.983 333.162 C 60.034 333.753,61.712 334.344,61.713 334.475 C 61.713 334.606,62.240 334.750,62.883 334.795 C 63.526 334.840,64.288 335.073,64.575 335.312 C 64.863 335.551,65.099 335.620,65.099 335.466 C 65.099 335.311,65.353 335.396,65.663 335.654 C 65.974 335.911,66.228 335.996,66.228 335.842 C 66.228 335.688,66.455 335.750,66.733 335.981 C 67.010 336.211,67.349 336.288,67.485 336.152 C 67.621 336.016,67.733 336.110,67.733 336.360 C 67.733 336.611,67.944 336.774,68.203 336.724 C 69.073 336.554,71.642 337.212,71.193 337.490 C 70.952 337.639,71.375 337.761,72.135 337.761 C 72.894 337.761,73.583 337.964,73.666 338.213 C 73.749 338.461,74.044 338.664,74.322 338.664 C 74.601 338.664,75.095 338.930,75.420 339.255 C 75.745 339.581,76.011 339.680,76.011 339.477 C 76.011 339.075,83.269 341.305,83.475 341.771 C 83.545 341.927,83.736 341.972,83.901 341.870 C 84.066 341.768,85.195 342.033,86.409 342.460 C 87.624 342.886,89.035 343.317,89.546 343.418 C 90.057 343.518,90.650 343.745,90.863 343.923 C 91.273 344.262,91.457 344.309,92.402 344.309 C 92.725 344.309,92.884 344.478,92.756 344.685 C 92.628 344.892,92.882 345.061,93.321 345.061 C 93.808 345.061,94.018 345.223,93.860 345.478 C 93.692 345.750,93.848 345.817,94.308 345.671 C 94.697 345.548,96.199 345.844,97.648 346.329 C 99.097 346.814,102.444 347.868,105.086 348.671 C 108.880 349.824,109.845 350.250,109.673 350.700 C 109.500 351.157,109.551 351.176,109.931 350.800 C 110.568 350.167,111.031 350.204,110.777 350.866 C 110.623 351.267,110.785 351.347,111.412 351.183 C 112.029 351.022,112.175 351.090,111.959 351.439 C 111.742 351.790,111.876 351.848,112.465 351.661 C 112.906 351.521,113.264 351.571,113.264 351.774 C 113.264 351.975,113.629 352.045,114.076 351.928 C 114.596 351.792,114.798 351.860,114.640 352.116 C 114.484 352.369,114.671 352.444,115.145 352.320 C 115.583 352.205,115.898 352.308,115.898 352.565 C 115.898 352.809,116.075 352.898,116.291 352.765 C 116.507 352.631,116.888 352.692,117.138 352.899 C 117.387 353.106,117.719 353.290,117.874 353.308 C 118.029 353.325,118.198 353.352,118.250 353.368 C 118.302 353.383,118.768 353.473,119.285 353.567 C 119.802 353.661,120.283 353.903,120.352 354.105 C 120.421 354.308,120.632 354.378,120.819 354.262 C 121.271 353.983,125.306 355.265,125.306 355.688 C 125.306 355.870,125.463 355.921,125.654 355.803 C 126.012 355.582,129.484 356.625,129.821 357.055 C 130.040 357.334,130.896 357.629,137.636 359.753 L 142.628 361.326 144.324 359.762 C 145.274 358.886,146.208 358.314,146.446 358.461 C 146.700 358.619,146.767 358.556,146.611 358.304 C 146.310 357.817,151.571 352.120,152.049 352.415 C 152.223 352.523,152.657 352.140,153.012 351.564 C 153.892 350.139,158.112 345.812,158.430 346.008 C 158.571 346.096,159.092 345.721,159.588 345.177 C 160.084 344.633,160.235 344.322,159.925 344.488 C 159.614 344.653,160.541 343.580,161.984 342.103 C 164.605 339.420,165.098 339.001,164.592 339.887 C 164.445 340.146,164.858 339.860,165.511 339.252 C 166.756 338.093,167.019 337.684,166.228 338.136 C 165.969 338.283,166.247 337.878,166.845 337.235 C 167.444 336.592,168.121 336.100,168.351 336.142 C 168.580 336.184,168.733 336.031,168.691 335.801 C 168.649 335.572,169.141 334.895,169.784 334.296 C 170.427 333.698,170.817 333.462,170.651 333.772 C 170.484 334.083,170.966 333.753,171.721 333.040 C 173.143 331.698,173.437 331.275,172.625 331.739 C 172.366 331.886,172.644 331.481,173.242 330.838 C 173.841 330.195,174.518 329.703,174.748 329.745 C 174.977 329.787,175.130 329.634,175.088 329.404 C 175.046 329.175,175.538 328.498,176.181 327.899 C 176.824 327.301,177.211 327.053,177.040 327.350 C 176.869 327.646,177.351 327.414,178.111 326.835 C 178.870 326.255,179.492 325.611,179.492 325.403 C 179.492 325.195,179.196 325.250,178.833 325.526 C 178.471 325.801,178.750 325.406,179.454 324.649 C 180.157 323.893,180.919 323.307,181.147 323.349 C 181.375 323.390,181.527 323.237,181.485 323.007 C 181.443 322.778,181.935 322.101,182.578 321.502 C 183.221 320.904,183.609 320.668,183.441 320.978 C 183.272 321.289,183.584 321.133,184.134 320.632 C 184.683 320.131,185.045 319.632,184.936 319.524 C 184.671 319.259,189.712 314.198,190.039 314.400 C 190.180 314.487,190.701 314.113,191.196 313.568 C 191.692 313.024,191.844 312.714,191.533 312.879 C 191.223 313.045,192.128 311.993,193.545 310.542 C 194.962 309.091,196.402 307.925,196.744 307.950 C 197.095 307.976,197.368 307.718,197.371 307.358 C 197.376 306.577,199.423 304.369,199.879 304.651 C 200.059 304.762,200.160 304.637,200.103 304.372 C 200.047 304.108,200.198 303.884,200.439 303.874 C 200.680 303.865,201.019 303.703,201.192 303.514 C 201.378 303.311,201.276 303.297,200.941 303.479 C 200.630 303.647,200.854 303.272,201.437 302.644 C 202.021 302.017,202.783 301.525,203.131 301.551 C 203.505 301.580,203.744 301.344,203.716 300.973 C 203.690 300.628,204.434 299.612,205.370 298.715 C 206.305 297.818,206.934 297.338,206.767 297.648 C 206.588 297.983,206.604 298.085,206.807 297.899 C 206.995 297.727,207.157 297.388,207.167 297.146 C 207.176 296.905,207.400 296.754,207.665 296.811 C 207.930 296.868,208.051 296.760,207.934 296.571 C 207.664 296.134,208.755 295.215,209.552 295.208 C 209.887 295.205,210.139 294.920,210.113 294.576 C 210.087 294.231,210.831 293.215,211.767 292.318 C 212.702 291.421,213.332 290.925,213.166 291.215 C 212.964 291.572,213.009 291.655,213.306 291.471 C 213.549 291.322,213.666 291.067,213.566 290.906 C 213.381 290.607,215.364 288.514,215.769 288.580 C 215.892 288.601,216.005 288.490,216.019 288.335 C 216.071 287.788,217.226 286.756,217.557 286.961 C 217.742 287.075,217.846 286.951,217.789 286.687 C 217.732 286.422,217.883 286.198,218.125 286.188 C 218.366 286.179,218.705 286.017,218.877 285.829 C 219.064 285.625,218.962 285.613,218.627 285.799 C 218.266 285.999,218.322 285.816,218.779 285.295 C 219.490 284.485,220.508 284.188,220.508 284.791 C 220.508 284.964,220.728 285.105,220.997 285.105 C 221.834 285.105,226.529 287.465,226.529 287.886 C 226.529 288.106,226.717 288.169,226.947 288.027 C 227.177 287.884,227.473 287.917,227.606 288.099 C 227.945 288.566,234.507 291.835,234.877 291.722 C 235.046 291.670,235.183 291.807,235.183 292.026 C 235.183 292.245,235.353 292.320,235.560 292.192 C 235.767 292.064,235.936 292.167,235.936 292.421 C 235.936 292.674,236.046 292.772,236.180 292.638 C 236.435 292.382,239.154 293.736,240.008 294.544 C 240.282 294.802,240.747 295.014,241.043 295.014 C 241.339 295.014,241.580 295.212,241.580 295.453 C 241.580 295.695,241.684 295.789,241.810 295.663 C 241.936 295.536,243.184 296.016,244.582 296.729 C 245.980 297.441,247.290 298.024,247.493 298.024 C 247.695 298.024,248.169 298.366,248.547 298.782 C 248.949 299.227,249.501 299.455,249.882 299.334 C 250.242 299.220,250.832 299.427,251.203 299.799 C 251.573 300.168,251.929 300.428,251.996 300.376 C 252.377 300.080,252.808 300.382,252.988 301.073 C 253.113 301.548,253.368 301.756,253.629 301.595 C 254.108 301.299,257.008 302.472,257.008 302.962 C 257.008 303.131,256.712 303.174,256.350 303.057 C 255.800 302.880,255.784 302.910,256.253 303.241 C 256.576 303.470,256.954 303.497,257.145 303.306 C 257.327 303.124,257.724 303.070,258.027 303.186 C 258.479 303.360,258.487 303.461,258.075 303.754 C 257.717 304.008,257.819 304.057,258.426 303.923 C 258.895 303.820,259.490 303.946,259.747 304.203 C 260.003 304.460,260.447 304.592,260.733 304.497 C 261.079 304.382,261.152 304.486,260.954 304.807 C 260.764 305.114,260.805 305.198,261.066 305.036 C 261.558 304.732,265.701 306.691,265.444 307.106 C 265.345 307.266,265.939 307.578,266.764 307.800 C 267.589 308.023,268.525 308.466,268.845 308.786 C 269.165 309.105,269.426 309.278,269.426 309.170 C 269.426 308.914,277.437 312.653,277.696 313.030 C 277.804 313.187,280.729 314.645,284.196 316.270 C 287.662 317.894,290.499 319.351,290.499 319.507 C 290.499 319.663,291.112 319.993,291.861 320.241 C 292.857 320.569,293.084 320.778,292.707 321.017 C 292.312 321.267,292.368 321.355,292.944 321.392 C 294.271 321.479,294.402 321.522,297.378 322.839 C 299.599 323.822,300.253 324.277,300.084 324.721 C 299.911 325.176,299.962 325.206,300.316 324.855 C 300.841 324.333,302.673 325.112,303.707 326.295 C 304.039 326.675,304.404 326.891,304.519 326.776 C 304.634 326.661,305.501 326.979,306.447 327.482 C 307.392 327.986,308.066 328.497,307.944 328.619 C 307.823 328.741,308.038 328.820,308.424 328.796 C 309.426 328.732,314.925 331.362,315.730 332.290 C 316.102 332.718,316.503 333.058,316.622 333.044 C 317.544 332.939,317.974 333.081,317.764 333.421 C 317.628 333.642,317.745 333.787,318.024 333.744 C 318.769 333.629,320.978 334.538,320.978 334.960 C 320.978 335.159,321.148 335.217,321.355 335.089 C 321.562 334.961,321.731 335.046,321.731 335.278 C 321.731 335.509,321.900 335.594,322.107 335.466 C 322.314 335.338,322.484 335.422,322.484 335.654 C 322.484 335.885,322.622 335.989,322.791 335.884 C 323.183 335.642,327.076 337.432,327.455 338.028 C 327.612 338.274,327.743 338.323,327.746 338.136 C 327.749 337.949,328.090 338.187,328.504 338.664 C 328.918 339.141,329.257 339.401,329.257 339.240 C 329.257 339.080,329.468 339.124,329.727 339.339 C 329.986 339.553,330.288 339.701,330.398 339.667 C 330.823 339.535,333.743 341.042,333.578 341.308 C 333.482 341.463,333.614 341.568,333.870 341.541 C 334.805 341.444,337.160 342.594,337.189 343.161 C 337.207 343.521,337.289 343.571,337.402 343.292 C 337.539 342.955,337.911 342.995,338.861 343.448 C 339.563 343.783,340.032 344.226,339.903 344.435 C 339.764 344.660,339.922 344.716,340.296 344.572 C 340.640 344.440,340.922 344.468,340.922 344.633 C 340.922 344.953,341.845 345.448,343.833 346.196 C 344.503 346.448,344.960 346.801,344.849 346.982 C 344.737 347.163,344.936 347.199,345.291 347.063 C 345.767 346.880,345.855 346.947,345.626 347.319 C 345.398 347.687,345.483 347.758,345.940 347.583 C 346.348 347.426,346.566 347.534,346.566 347.891 C 346.566 348.226,346.895 348.416,347.413 348.380 C 348.318 348.317,352.205 349.871,352.153 350.276 C 352.060 350.997,352.267 351.201,352.587 350.706 C 352.904 350.216,352.953 350.223,352.958 350.759 C 352.961 351.118,353.396 351.482,353.998 351.629 C 356.387 352.211,365.796 356.891,365.117 357.159 C 364.543 357.385,364.572 357.430,365.305 357.452 C 365.780 357.467,367.964 358.325,370.158 359.360 C 372.352 360.395,374.206 361.242,374.279 361.242 C 374.352 361.242,374.412 292.000,374.412 207.371 C 374.412 84.474,374.317 53.520,373.942 53.597 C 373.683 53.651,372.963 53.902,372.342 54.156 C 371.722 54.410,370.367 54.851,369.332 55.136 C 366.414 55.939,365.158 56.374,365.569 56.439 C 365.776 56.472,365.015 56.829,363.879 57.232 C 362.527 57.712,361.765 57.826,361.677 57.561 C 361.593 57.310,361.378 57.362,361.110 57.699 C 360.552 58.397,356.385 59.925,355.725 59.672 C 355.448 59.565,355.221 59.609,355.221 59.768 C 355.221 60.010,350.765 61.625,349.416 61.872 C 348.451 62.049,347.115 62.591,346.926 62.882 C 346.814 63.056,346.390 63.262,345.986 63.339 C 345.581 63.417,344.995 63.590,344.685 63.723 C 343.497 64.233,337.688 65.939,336.971 65.988 C 336.557 66.016,336.134 66.140,336.030 66.262 C 335.683 66.671,332.177 67.722,331.844 67.516 C 331.663 67.404,331.515 67.484,331.515 67.694 C 331.515 67.903,330.922 68.186,330.198 68.322 C 329.473 68.458,328.881 68.703,328.881 68.867 C 328.881 69.267,326.975 69.905,326.151 69.780 C 325.787 69.725,325.570 69.809,325.667 69.966 C 325.920 70.375,321.527 71.531,320.716 71.268 C 320.195 71.099,320.158 71.134,320.558 71.419 C 321.066 71.782,320.987 71.816,318.156 72.472 C 317.949 72.520,317.103 72.804,316.275 73.102 C 315.447 73.401,314.472 73.600,314.109 73.544 C 313.746 73.489,313.531 73.577,313.632 73.740 C 313.733 73.903,313.014 74.256,312.035 74.525 C 311.055 74.795,310.169 75.127,310.066 75.265 C 309.749 75.686,306.230 76.763,305.880 76.547 C 305.699 76.435,305.550 76.487,305.550 76.664 C 305.550 77.111,302.208 77.960,301.667 77.650 C 301.423 77.510,301.355 77.540,301.515 77.717 C 301.841 78.075,293.550 80.973,293.063 80.672 C 292.894 80.568,292.756 80.662,292.756 80.881 C 292.756 81.100,292.418 81.279,292.004 81.279 C 291.590 81.279,291.251 81.422,291.251 81.596 C 291.251 81.771,289.685 82.369,287.770 82.925 C 285.856 83.481,283.782 84.116,283.161 84.336 C 282.540 84.555,280.169 85.331,277.893 86.059 C 275.616 86.788,273.644 87.559,273.510 87.772 C 273.376 87.986,272.910 88.067,272.474 87.954 C 272.039 87.840,271.778 87.900,271.894 88.088 C 272.010 88.275,271.798 88.455,271.424 88.486 C 270.350 88.577,270.074 88.656,268.674 89.276 C 267.949 89.597,266.933 89.919,266.416 89.991 C 265.898 90.063,265.390 90.230,265.287 90.361 C 265.062 90.646,259.052 92.568,258.384 92.568 C 257.694 92.568,254.685 89.377,255.024 89.004 C 255.184 88.828,255.111 88.802,254.862 88.944 C 254.589 89.101,253.619 88.357,252.416 87.070 C 251.320 85.895,249.962 84.512,249.399 83.995 C 248.836 83.478,248.481 82.883,248.610 82.674 C 248.740 82.464,248.669 82.401,248.453 82.535 C 247.952 82.845,245.669 80.538,245.979 80.035 C 246.107 79.827,246.035 79.767,245.819 79.901 C 245.603 80.035,245.144 79.715,244.801 79.190 C 244.457 78.665,242.449 76.531,240.338 74.447 C 238.227 72.363,236.806 70.760,237.179 70.884 C 237.603 71.026,237.765 70.962,237.611 70.713 C 237.476 70.495,237.147 70.399,236.881 70.502 C 236.390 70.690,231.421 65.762,231.421 65.088 C 231.421 64.887,231.182 64.722,230.890 64.722 C 230.168 64.722,228.344 62.500,228.654 61.998 C 228.806 61.753,228.724 61.706,228.445 61.879 C 227.884 62.225,226.451 61.014,226.784 60.475 C 226.914 60.264,226.840 60.203,226.618 60.340 C 226.214 60.590,222.766 56.871,222.766 56.185 C 222.766 55.983,222.340 55.591,221.820 55.312 C 220.692 54.709,215.011 48.871,215.146 48.455 C 215.198 48.296,215.021 48.166,214.754 48.166 C 213.937 48.166,210.951 44.900,211.535 44.645 C 211.911 44.481,211.896 44.444,211.477 44.500 C 210.732 44.600,208.642 42.489,208.772 41.769 C 208.850 41.340,208.796 41.320,208.549 41.683 C 208.298 42.053,208.065 41.988,207.534 41.401 C 207.155 40.982,206.976 40.640,207.137 40.640 C 207.298 40.640,207.221 40.388,206.965 40.079 C 206.709 39.771,206.376 39.596,206.224 39.690 C 205.871 39.908,204.261 38.173,203.371 36.615 C 202.993 35.954,202.582 35.476,202.457 35.553 C 202.142 35.748,191.910 25.391,191.910 24.877 C 191.910 24.647,191.730 24.459,191.511 24.459 C 191.292 24.459,191.220 24.286,191.351 24.073 C 191.482 23.861,191.365 23.734,191.091 23.791 C 190.817 23.848,190.639 23.670,190.696 23.396 C 190.755 23.113,190.619 23.010,190.380 23.157 C 189.845 23.488,186.971 20.712,187.282 20.165 C 187.410 19.940,187.374 19.883,187.203 20.038 C 186.863 20.346,185.513 19.294,185.513 18.722 C 185.513 18.099,184.203 16.680,183.763 16.827 C 183.529 16.905,182.972 16.504,182.525 15.935 C 181.786 14.996,180.597 14.389,180.677 14.993 " stroke="none" fill-rule="evenodd"></path><path id="path1" d="" stroke="none" fill-rule="evenodd"></path><path id="path2" d="M179.600 15.719 C 178.816 16.914,178.006 18.165,177.799 18.499 C 177.592 18.832,176.972 19.675,176.421 20.371 C 174.341 23.001,171.125 28.660,171.499 29.034 C 171.933 29.468,174.371 25.755,174.023 25.191 C 173.902 24.995,173.965 24.835,174.162 24.835 C 174.360 24.835,175.075 23.973,175.751 22.919 C 176.427 21.866,177.238 20.746,177.552 20.432 C 178.327 19.657,180.714 15.720,180.732 15.188 C 180.756 14.467,181.668 14.847,182.525 15.935 C 182.972 16.504,183.529 16.905,183.763 16.827 C 184.203 16.680,185.513 18.099,185.513 18.722 C 185.513 19.294,186.863 20.346,187.203 20.038 C 187.374 19.883,187.410 19.940,187.282 20.165 C 186.946 20.755,189.847 23.486,190.429 23.127 C 190.726 22.943,190.802 22.992,190.636 23.260 C 190.493 23.492,190.721 23.897,191.143 24.161 C 191.564 24.425,191.910 24.787,191.910 24.967 C 191.910 25.430,202.180 35.724,202.466 35.548 C 202.595 35.468,203.061 36.030,203.502 36.798 C 204.416 38.392,214.129 48.166,214.799 48.166 C 215.041 48.166,215.198 48.296,215.146 48.455 C 215.011 48.871,220.692 54.709,221.820 55.312 C 222.340 55.591,222.766 55.983,222.766 56.185 C 222.766 56.871,226.214 60.590,226.618 60.340 C 226.840 60.203,226.914 60.264,226.784 60.475 C 226.451 61.014,227.884 62.225,228.445 61.879 C 228.724 61.706,228.806 61.753,228.654 61.998 C 228.359 62.475,230.151 64.722,230.826 64.722 C 231.083 64.722,231.510 65.127,231.774 65.621 C 232.039 66.116,234.955 69.184,238.255 72.439 C 241.555 75.693,244.518 78.759,244.840 79.250 C 245.162 79.742,245.603 80.035,245.819 79.901 C 246.035 79.767,246.107 79.827,245.979 80.035 C 245.669 80.538,247.952 82.845,248.453 82.535 C 248.669 82.401,248.740 82.464,248.610 82.674 C 248.481 82.883,248.836 83.478,249.399 83.995 C 249.962 84.512,251.320 85.895,252.416 87.070 C 253.619 88.357,254.589 89.101,254.862 88.944 C 255.111 88.802,255.184 88.828,255.024 89.004 C 254.685 89.377,257.694 92.568,258.384 92.568 C 259.052 92.568,265.062 90.646,265.287 90.361 C 265.390 90.230,265.898 90.063,266.416 89.991 C 266.933 89.919,267.949 89.597,268.674 89.276 C 269.398 88.956,270.160 88.671,270.367 88.644 C 271.503 88.498,273.403 87.919,273.565 87.671 C 273.669 87.513,275.616 86.788,277.893 86.059 C 280.169 85.331,282.540 84.555,283.161 84.336 C 283.782 84.116,285.856 83.481,287.770 82.925 C 289.685 82.369,291.251 81.771,291.251 81.596 C 291.251 81.422,291.590 81.279,292.004 81.279 C 292.418 81.279,292.756 81.100,292.756 80.881 C 292.756 80.662,292.893 80.567,293.059 80.669 C 293.225 80.772,295.881 80.020,298.960 78.998 C 302.039 77.976,304.782 77.140,305.054 77.140 C 305.327 77.140,305.550 76.961,305.550 76.742 C 305.550 76.522,305.699 76.435,305.880 76.547 C 306.235 76.767,309.756 75.682,310.066 75.257 C 310.169 75.115,310.712 74.886,311.272 74.749 C 311.832 74.612,312.679 74.352,313.154 74.172 C 313.628 73.991,314.142 73.817,314.294 73.784 C 314.446 73.751,315.293 73.464,316.175 73.146 C 317.058 72.828,318.057 72.509,318.396 72.438 C 319.206 72.267,325.145 70.415,325.870 70.107 C 326.611 69.793,326.890 69.718,327.537 69.661 C 327.832 69.635,328.308 69.381,328.593 69.096 C 328.878 68.811,329.652 68.458,330.313 68.313 C 330.974 68.168,331.515 67.883,331.515 67.681 C 331.515 67.478,331.663 67.404,331.844 67.516 C 332.177 67.722,335.683 66.671,336.030 66.262 C 336.134 66.140,336.557 66.016,336.971 65.988 C 337.688 65.939,343.497 64.233,344.685 63.723 C 344.995 63.590,345.581 63.417,345.986 63.339 C 346.390 63.262,346.814 63.056,346.926 62.882 C 347.115 62.591,348.451 62.049,349.416 61.872 C 350.765 61.625,355.221 60.010,355.221 59.768 C 355.221 59.609,355.448 59.565,355.726 59.672 C 356.410 59.934,360.971 58.197,361.171 57.598 C 361.350 57.059,359.642 57.432,359.430 57.978 C 359.365 58.146,359.069 58.190,358.772 58.076 C 358.474 57.962,358.231 58.064,358.231 58.302 C 358.231 58.540,358.020 58.692,357.761 58.639 C 356.967 58.477,352.219 59.916,352.429 60.256 C 352.537 60.431,352.363 60.474,352.042 60.351 C 351.720 60.227,351.458 60.323,351.458 60.565 C 351.458 60.807,351.318 60.917,351.146 60.811 C 350.784 60.588,345.718 62.041,345.437 62.449 C 345.334 62.599,341.609 63.866,337.159 65.264 C 332.709 66.663,328.358 68.129,327.490 68.522 C 326.622 68.916,325.733 69.238,325.515 69.238 C 325.296 69.238,325.118 69.417,325.118 69.637 C 325.118 69.856,324.968 69.942,324.784 69.829 C 324.408 69.596,311.063 73.789,308.749 74.868 C 307.921 75.253,305.974 75.941,304.421 76.395 C 302.869 76.849,301.430 77.325,301.223 77.452 C 301.016 77.579,300.631 77.716,300.367 77.756 C 299.276 77.922,290.939 80.657,289.400 81.355 C 288.486 81.770,284.168 83.247,279.805 84.638 C 274.622 86.291,271.908 87.330,271.975 87.638 C 272.032 87.897,271.906 88.002,271.696 87.872 C 271.314 87.636,260.377 90.928,260.019 91.387 C 259.498 92.053,258.303 91.397,256.148 89.261 C 254.839 87.964,253.637 87.034,253.476 87.195 C 253.315 87.356,253.239 87.290,253.308 87.048 C 253.377 86.805,249.962 83.079,245.720 78.767 C 241.477 74.455,232.427 65.255,225.608 58.323 C 218.789 51.391,213.061 45.766,212.880 45.823 C 212.698 45.880,212.642 45.778,212.754 45.597 C 213.008 45.185,206.311 38.532,205.784 38.673 C 205.573 38.730,205.498 38.619,205.617 38.426 C 205.736 38.233,203.675 35.877,201.036 33.189 C 198.396 30.502,192.975 24.983,188.987 20.925 C 180.686 12.476,181.450 12.900,179.600 15.719 M169.891 30.115 C 169.305 31.247,169.435 32.199,170.117 31.777 C 170.313 31.656,170.375 31.398,170.255 31.203 C 170.135 31.009,170.301 30.586,170.625 30.262 C 171.289 29.598,171.396 28.975,170.847 28.975 C 170.645 28.975,170.215 29.488,169.891 30.115 M168.041 33.142 C 167.472 34.002,167.233 34.568,167.511 34.400 C 167.788 34.232,167.465 34.649,166.792 35.326 C 165.698 36.428,165.367 37.166,165.534 38.128 C 165.564 38.298,165.437 38.345,165.252 38.231 C 164.763 37.928,163.566 39.386,163.883 39.899 C 164.253 40.497,166.431 38.081,166.160 37.374 C 166.047 37.079,166.086 36.919,166.247 37.019 C 166.552 37.207,168.719 34.039,168.510 33.710 C 168.445 33.607,168.730 33.273,169.144 32.967 C 169.689 32.565,169.783 32.297,169.486 31.995 C 169.188 31.692,168.794 32.005,168.041 33.142 M161.319 43.349 C 160.167 45.279,158.789 47.364,158.256 47.982 C 157.723 48.601,157.381 49.355,157.497 49.659 C 157.612 49.963,157.585 50.091,157.437 49.943 C 157.175 49.681,153.151 55.356,153.151 55.987 C 153.151 56.160,152.847 56.630,152.475 57.032 C 150.942 58.684,148.587 62.548,148.791 63.078 C 149.017 63.668,149.765 63.449,149.765 62.793 C 149.765 62.384,151.852 59.219,152.672 58.384 C 152.945 58.106,153.444 57.344,153.779 56.691 C 154.115 56.038,155.034 54.550,155.823 53.385 C 156.611 52.220,157.151 51.162,157.023 51.033 C 156.894 50.905,156.991 50.800,157.237 50.800 C 157.484 50.800,157.847 50.376,158.043 49.859 C 158.240 49.341,158.584 48.918,158.809 48.918 C 159.033 48.918,159.123 48.767,159.008 48.581 C 158.894 48.396,159.053 48.147,159.362 48.029 C 159.672 47.910,159.925 47.441,159.925 46.986 C 159.925 46.531,160.037 46.271,160.174 46.408 C 160.506 46.740,162.217 44.190,162.287 43.257 C 162.318 42.853,162.456 42.521,162.596 42.521 C 163.134 42.521,164.131 40.556,163.774 40.199 C 163.544 39.969,162.653 41.113,161.319 43.349 M372.625 53.150 C 371.952 53.366,371.402 53.697,371.402 53.887 C 371.402 54.076,371.263 54.145,371.093 54.040 C 370.654 53.769,365.460 55.435,363.779 56.386 C 363.001 56.827,362.244 57.176,362.095 57.164 C 361.947 57.151,361.755 57.349,361.670 57.605 C 361.574 57.892,361.735 57.985,362.092 57.848 C 362.409 57.726,363.358 57.420,364.201 57.168 C 365.043 56.915,365.655 56.584,365.561 56.431 C 365.467 56.279,365.769 56.067,366.232 55.960 C 368.092 55.532,371.278 54.592,372.342 54.156 C 372.963 53.902,373.683 53.651,373.942 53.597 C 374.317 53.520,374.412 84.474,374.412 207.371 C 374.412 292.000,374.352 361.242,374.279 361.242 C 374.206 361.242,372.352 360.395,370.158 359.360 C 367.964 358.325,365.780 357.493,365.305 357.511 C 364.719 357.533,365.289 357.947,367.071 358.794 C 368.518 359.482,369.830 359.966,369.987 359.869 C 370.144 359.772,370.273 359.847,370.273 360.037 C 370.273 360.472,374.458 362.386,374.864 362.136 C 375.573 361.697,375.216 52.678,374.506 52.720 C 374.144 52.741,373.297 52.934,372.625 53.150 M148.071 63.594 C 147.921 63.837,147.968 64.205,148.175 64.412 C 148.426 64.663,148.642 64.641,148.824 64.346 C 148.974 64.103,148.928 63.735,148.721 63.528 C 148.470 63.277,148.254 63.299,148.071 63.594 M146.370 66.132 C 144.058 69.353,140.734 74.631,140.907 74.805 C 141.231 75.129,142.286 74.510,142.052 74.132 C 141.924 73.924,141.998 73.754,142.217 73.754 C 142.436 73.754,142.615 73.500,142.615 73.189 C 142.615 72.879,142.742 72.624,142.897 72.624 C 143.197 72.623,145.437 69.236,145.437 68.784 C 145.437 68.638,145.708 68.299,146.038 68.031 C 147.144 67.134,148.367 65.056,148.003 64.692 C 147.789 64.477,147.159 65.033,146.370 66.132 M140.357 75.551 C 140.357 75.712,139.852 76.397,139.235 77.073 C 138.617 77.749,137.657 79.099,137.100 80.073 C 136.543 81.047,134.840 83.668,133.314 85.897 C 131.687 88.274,130.649 90.142,130.805 90.413 C 130.951 90.667,130.932 90.749,130.763 90.596 C 130.594 90.443,130.078 90.866,129.616 91.537 C 129.031 92.388,128.907 92.840,129.206 93.033 C 129.491 93.217,129.442 93.311,129.060 93.315 C 128.745 93.318,128.153 93.956,127.745 94.732 C 127.337 95.508,126.708 96.362,126.348 96.631 C 125.988 96.899,125.235 97.915,124.675 98.888 C 124.115 99.862,122.834 101.890,121.830 103.395 C 120.172 105.879,119.875 106.867,120.787 106.867 C 120.968 106.867,121.221 106.534,121.351 106.127 C 121.480 105.720,122.299 104.323,123.172 103.023 C 124.045 101.722,124.981 100.219,125.252 99.683 C 125.524 99.146,126.287 98.099,126.948 97.356 C 127.609 96.613,128.497 95.359,128.923 94.569 C 129.348 93.779,130.291 92.201,131.019 91.063 C 131.747 89.925,132.267 88.776,132.175 88.511 C 132.084 88.246,132.151 88.055,132.326 88.085 C 133.043 88.213,133.584 88.029,133.584 87.659 C 133.584 87.443,134.431 86.011,135.466 84.478 C 136.500 82.944,137.347 81.588,137.347 81.465 C 137.347 81.341,137.763 80.628,138.271 79.880 C 138.779 79.132,139.109 78.381,139.004 78.211 C 138.899 78.040,139.034 77.986,139.304 78.090 C 139.574 78.193,140.018 77.920,140.292 77.482 C 140.639 76.926,140.653 76.770,140.336 76.965 C 140.048 77.143,139.947 77.055,140.058 76.722 C 140.154 76.435,140.458 76.199,140.734 76.199 C 141.010 76.199,141.306 75.988,141.392 75.729 C 141.479 75.470,141.281 75.259,140.953 75.259 C 140.626 75.259,140.357 75.390,140.357 75.551 M27.093 207.307 L 27.093 323.552 28.989 324.182 C 30.031 324.528,31.141 324.713,31.454 324.592 C 31.823 324.451,31.929 324.527,31.755 324.810 C 31.575 325.101,31.693 325.166,32.111 325.005 C 32.456 324.873,32.738 324.929,32.738 325.129 C 32.738 325.330,32.949 325.495,33.208 325.496 C 33.467 325.497,34.123 325.730,34.666 326.014 C 37.046 327.256,44.007 329.305,44.640 328.951 C 45.222 328.625,44.358 328.219,42.521 327.955 C 42.418 327.940,42.164 327.826,41.957 327.701 C 41.037 327.146,38.039 326.332,36.689 326.270 C 36.155 326.245,36.076 326.146,36.416 325.930 C 36.718 325.738,35.222 325.108,32.371 324.226 L 27.846 322.826 27.846 207.294 C 27.846 100.064,27.890 91.806,28.465 92.381 C 28.965 92.881,29.145 92.904,29.400 92.502 C 29.643 92.119,29.717 92.150,29.721 92.637 C 29.725 92.985,30.108 93.389,30.574 93.534 C 31.040 93.680,31.505 93.911,31.609 94.049 C 31.712 94.187,32.728 94.792,33.866 95.393 C 38.203 97.683,40.475 98.710,41.118 98.673 C 41.511 98.650,41.680 98.804,41.530 99.046 C 41.378 99.293,41.450 99.350,41.710 99.189 C 41.949 99.042,42.145 99.097,42.145 99.312 C 42.145 99.527,42.567 99.809,43.083 99.939 C 43.599 100.068,43.947 100.295,43.856 100.442 C 43.684 100.719,47.503 102.728,48.201 102.728 C 48.418 102.728,48.850 102.982,49.160 103.293 C 49.471 103.603,50.030 103.857,50.404 103.857 C 50.778 103.857,51.293 104.109,51.549 104.417 C 51.805 104.725,52.164 104.885,52.347 104.771 C 52.531 104.658,52.681 104.725,52.681 104.920 C 52.681 105.298,54.080 105.854,54.816 105.769 C 55.059 105.741,55.382 105.919,55.533 106.163 C 55.705 106.442,55.646 106.507,55.373 106.339 C 55.134 106.191,54.939 106.250,54.939 106.469 C 54.939 106.827,55.220 106.930,55.932 106.835 C 56.064 106.818,56.277 106.945,56.405 107.117 C 56.888 107.766,61.408 109.878,61.798 109.636 C 62.026 109.496,62.097 109.559,61.961 109.780 C 61.684 110.227,62.727 110.745,63.251 110.421 C 63.440 110.305,63.594 110.368,63.594 110.562 C 63.594 110.756,64.144 111.146,64.817 111.427 C 66.020 111.930,66.230 111.995,66.980 112.088 C 67.187 112.114,67.357 112.398,67.357 112.718 C 67.357 113.415,70.243 114.794,71.051 114.483 C 71.382 114.356,71.520 114.425,71.383 114.648 C 71.253 114.858,72.030 115.435,73.109 115.931 C 74.188 116.426,75.155 116.927,75.259 117.045 C 75.554 117.380,78.049 118.345,78.363 118.246 C 78.518 118.196,78.645 118.335,78.645 118.555 C 78.645 118.774,78.815 118.849,79.022 118.721 C 79.229 118.593,79.398 118.720,79.398 119.003 C 79.398 119.434,84.054 121.925,84.931 121.963 C 86.063 122.012,85.032 121.087,82.988 120.218 C 81.634 119.643,80.527 119.057,80.527 118.916 C 80.527 118.776,77.860 117.334,74.600 115.714 C 71.341 114.093,68.589 112.646,68.485 112.498 C 68.074 111.911,61.490 108.868,61.001 109.039 C 60.714 109.140,60.583 109.053,60.712 108.846 C 60.840 108.638,59.893 107.997,58.607 107.420 C 57.322 106.843,56.013 106.113,55.698 105.798 C 55.384 105.484,53.741 104.576,52.047 103.782 C 50.353 102.988,47.897 101.728,46.590 100.981 C 45.284 100.235,41.675 98.351,38.570 96.796 C 35.466 95.241,32.841 93.845,32.738 93.693 C 32.484 93.322,27.968 91.063,27.480 91.063 C 27.216 91.063,27.093 127.913,27.093 207.307 M117.876 109.412 C 115.086 113.748,114.199 115.300,114.311 115.644 C 114.366 115.815,114.256 115.858,114.065 115.740 C 113.515 115.400,111.199 119.251,111.670 119.722 C 111.943 119.996,112.257 119.708,112.699 118.776 C 113.049 118.039,113.710 117.047,114.169 116.573 C 115.567 115.127,116.712 113.291,116.464 112.891 C 116.336 112.682,116.386 112.512,116.576 112.512 C 117.129 112.512,119.731 108.376,119.195 108.349 C 118.934 108.336,119.102 108.172,119.567 107.985 C 120.439 107.634,120.667 107.068,120.082 106.706 C 119.899 106.594,118.907 107.811,117.876 109.412 M110.254 120.978 C 109.689 121.893,109.531 122.476,109.782 122.727 C 110.033 122.978,110.441 122.646,111.007 121.731 C 111.572 120.816,111.729 120.233,111.478 119.983 C 111.227 119.732,110.819 120.064,110.254 120.978 M85.655 122.117 C 85.465 122.614,85.841 122.843,86.642 122.716 C 86.797 122.692,86.924 122.823,86.924 123.008 C 86.924 123.193,87.150 123.430,87.426 123.536 C 88.389 123.906,87.919 122.622,86.898 122.094 C 86.002 121.631,85.841 121.634,85.655 122.117 M108.941 123.042 C 108.811 123.252,108.841 123.429,109.009 123.436 C 109.176 123.442,109.017 123.620,108.655 123.831 C 108.293 124.042,107.996 124.460,107.996 124.760 C 107.996 125.060,107.847 125.306,107.666 125.306 C 107.484 125.306,106.514 126.560,105.511 128.092 L 103.688 130.879 102.267 130.154 C 101.486 129.756,100.844 129.560,100.841 129.720 C 100.838 129.879,100.711 129.820,100.559 129.588 C 100.097 128.884,95.578 126.767,95.129 127.044 C 94.891 127.191,94.814 127.134,94.951 126.913 C 95.182 126.539,93.059 125.407,92.474 125.593 C 92.319 125.642,92.192 125.462,92.192 125.193 C 92.192 124.796,89.270 123.048,88.607 123.048 C 87.941 123.048,88.654 123.920,89.746 124.441 C 90.470 124.786,91.063 125.202,91.063 125.366 C 91.063 125.529,93.730 126.957,96.990 128.539 C 100.249 130.121,102.973 131.564,103.042 131.747 C 103.347 132.554,104.152 131.906,105.550 129.729 C 106.378 128.440,107.352 127.086,107.714 126.722 C 108.076 126.357,108.415 125.853,108.467 125.603 C 108.518 125.352,108.857 124.812,109.219 124.403 C 109.581 123.994,109.878 123.531,109.878 123.376 C 109.878 122.887,109.188 122.641,108.941 123.042 M218.504 285.539 C 217.944 286.122,217.616 286.742,217.775 286.916 C 217.933 287.090,217.873 287.125,217.642 286.993 C 217.235 286.761,215.747 288.072,215.861 288.563 C 215.892 288.696,215.793 288.772,215.642 288.732 C 215.142 288.600,210.168 293.883,210.164 294.550 C 210.162 294.909,209.887 295.205,209.552 295.208 C 208.713 295.216,207.670 296.144,207.964 296.620 C 208.098 296.836,208.040 296.909,207.835 296.782 C 207.338 296.475,203.772 300.129,203.767 300.951 C 203.765 301.308,203.474 301.601,203.121 301.604 C 202.296 301.609,199.767 304.045,200.073 304.539 C 200.200 304.745,200.135 304.809,199.928 304.681 C 199.435 304.377,197.376 306.532,197.371 307.358 C 197.368 307.718,197.095 307.976,196.744 307.950 C 196.402 307.925,194.962 309.091,193.545 310.542 C 192.128 311.993,191.223 313.045,191.533 312.879 C 191.844 312.714,191.692 313.024,191.196 313.568 C 190.701 314.113,190.180 314.487,190.039 314.400 C 189.712 314.198,184.671 319.259,184.936 319.524 C 185.045 319.632,184.683 320.131,184.134 320.632 C 183.584 321.133,183.269 321.289,183.434 320.978 C 183.600 320.668,182.526 321.595,181.049 323.038 C 178.576 325.454,177.564 326.626,178.928 325.494 C 179.245 325.230,179.492 325.191,179.492 325.403 C 179.492 325.611,178.870 326.255,178.111 326.835 C 177.351 327.414,176.866 327.646,177.034 327.350 C 177.201 327.053,176.214 327.907,174.840 329.246 C 172.339 331.684,171.933 332.169,172.813 331.667 C 173.071 331.519,172.792 331.926,172.191 332.572 C 171.590 333.217,170.984 333.675,170.845 333.589 C 170.706 333.503,169.504 334.548,168.174 335.912 C 166.845 337.276,166.011 338.258,166.322 338.094 C 166.632 337.929,166.389 338.329,165.781 338.982 C 164.619 340.231,164.220 340.485,164.658 339.699 C 164.802 339.440,163.712 340.409,162.234 341.853 C 159.555 344.470,159.129 344.971,160.019 344.458 C 160.278 344.309,160.084 344.633,159.588 345.177 C 159.092 345.721,158.571 346.096,158.430 346.008 C 158.112 345.812,153.892 350.139,153.012 351.564 C 152.657 352.140,152.223 352.523,152.049 352.415 C 151.571 352.120,146.310 357.817,146.611 358.304 C 146.767 358.556,146.700 358.619,146.446 358.461 C 146.208 358.314,145.274 358.886,144.324 359.762 L 142.628 361.326 137.636 359.753 C 130.896 357.629,130.040 357.334,129.821 357.055 C 129.484 356.625,126.012 355.582,125.654 355.803 C 125.463 355.921,125.306 355.870,125.306 355.688 C 125.306 355.265,121.271 353.983,120.819 354.262 C 120.632 354.378,120.421 354.308,120.352 354.105 C 120.283 353.903,119.802 353.661,119.285 353.567 C 118.768 353.473,118.302 353.362,118.250 353.321 C 118.198 353.279,118.029 353.222,117.874 353.193 C 117.719 353.164,117.380 353.006,117.121 352.841 C 116.863 352.677,116.482 352.647,116.275 352.775 C 116.068 352.903,115.898 352.809,115.898 352.565 C 115.898 352.308,115.583 352.205,115.145 352.320 C 114.671 352.444,114.484 352.369,114.640 352.116 C 114.798 351.860,114.596 351.792,114.076 351.928 C 113.629 352.045,113.264 351.975,113.264 351.774 C 113.264 351.571,112.906 351.521,112.465 351.661 C 111.876 351.848,111.742 351.790,111.959 351.439 C 112.175 351.090,112.029 351.022,111.412 351.183 C 110.785 351.347,110.623 351.267,110.777 350.866 C 111.031 350.204,110.568 350.167,109.931 350.800 C 109.551 351.176,109.500 351.157,109.673 350.700 C 109.845 350.250,108.880 349.824,105.086 348.671 C 102.444 347.868,99.097 346.814,97.648 346.329 C 96.199 345.844,94.697 345.548,94.308 345.671 C 93.848 345.817,93.692 345.750,93.860 345.478 C 94.018 345.223,93.808 345.061,93.321 345.061 C 92.882 345.061,92.628 344.892,92.756 344.685 C 92.884 344.478,92.725 344.287,92.402 344.262 C 91.510 344.190,91.286 344.131,90.849 343.852 C 90.627 343.711,90.034 343.514,89.531 343.415 C 89.029 343.316,87.624 342.886,86.409 342.460 C 85.195 342.033,84.066 341.768,83.901 341.870 C 83.736 341.972,83.545 341.927,83.475 341.771 C 83.224 341.204,76.011 339.085,76.011 339.577 C 76.011 339.860,79.054 340.996,83.631 342.422 C 87.822 343.728,91.336 344.915,91.439 345.059 C 91.607 345.293,99.777 347.972,101.216 348.265 C 101.530 348.329,102.267 348.567,102.854 348.793 C 103.440 349.020,104.075 349.110,104.265 348.993 C 104.454 348.876,104.610 348.928,104.610 349.109 C 104.610 349.291,105.583 349.743,106.773 350.115 C 107.963 350.486,109.106 350.922,109.313 351.084 C 110.004 351.623,121.602 355.229,121.952 355.013 C 122.141 354.896,122.295 354.955,122.295 355.144 C 122.295 355.333,123.608 355.873,125.212 356.343 C 126.816 356.814,128.318 357.349,128.551 357.534 C 128.784 357.718,132.167 358.875,136.068 360.105 L 143.162 362.341 144.006 361.549 C 144.470 361.113,144.758 360.607,144.645 360.425 C 144.533 360.243,144.665 360.141,144.939 360.198 C 145.213 360.255,145.391 360.077,145.334 359.803 C 145.277 359.529,145.396 359.407,145.599 359.532 C 146.098 359.841,167.889 337.940,167.579 337.439 C 167.445 337.221,167.504 337.148,167.711 337.276 C 168.200 337.577,170.186 335.513,169.808 335.097 C 169.650 334.923,169.709 334.889,169.941 335.020 C 170.516 335.349,174.342 331.635,174.000 331.080 C 173.848 330.835,173.895 330.747,174.108 330.879 C 174.597 331.180,176.583 329.116,176.205 328.700 C 176.047 328.526,176.130 328.506,176.390 328.656 C 176.908 328.954,182.768 323.052,182.587 322.415 C 182.530 322.215,182.646 322.151,182.843 322.274 C 183.322 322.570,195.708 310.051,195.411 309.571 C 195.284 309.365,195.357 309.306,195.573 309.440 C 196.087 309.757,199.127 306.717,198.810 306.204 C 198.676 305.987,198.735 305.914,198.940 306.041 C 199.429 306.343,202.173 303.530,201.795 303.114 C 201.636 302.939,201.698 302.906,201.934 303.041 C 202.448 303.335,205.543 300.350,205.237 299.856 C 205.120 299.666,205.192 299.558,205.397 299.614 C 205.973 299.774,211.891 293.874,211.609 293.419 C 211.473 293.198,211.529 293.121,211.735 293.248 C 212.164 293.513,214.603 291.148,214.306 290.756 C 214.199 290.614,214.229 290.588,214.373 290.698 C 214.517 290.808,215.838 289.703,217.307 288.243 C 220.479 285.092,220.097 285.096,225.853 288.163 C 228.275 289.454,232.170 291.435,234.508 292.564 C 236.846 293.693,239.012 294.784,239.323 294.989 C 240.965 296.072,255.763 303.083,256.198 302.983 C 256.516 302.910,256.601 303.039,256.424 303.326 C 256.242 303.619,256.296 303.688,256.574 303.517 C 256.813 303.369,257.008 303.115,257.008 302.951 C 257.008 302.469,254.102 301.302,253.629 301.595 C 253.368 301.756,253.113 301.548,252.988 301.073 C 252.808 300.382,252.377 300.080,251.996 300.376 C 251.929 300.428,251.573 300.168,251.203 299.799 C 250.775 299.370,250.258 299.215,249.772 299.369 C 249.219 299.545,249.092 299.481,249.305 299.136 C 249.485 298.845,249.446 298.755,249.207 298.903 C 248.992 299.036,248.606 298.893,248.350 298.585 C 248.095 298.277,247.714 298.024,247.505 298.024 C 247.296 298.024,245.980 297.441,244.582 296.729 C 243.184 296.016,241.936 295.536,241.810 295.663 C 241.684 295.789,241.580 295.695,241.580 295.453 C 241.580 295.212,241.339 295.014,241.043 295.014 C 240.747 295.014,240.282 294.802,240.008 294.544 C 239.154 293.736,236.435 292.382,236.180 292.638 C 236.046 292.772,235.936 292.674,235.936 292.421 C 235.936 292.167,235.767 292.064,235.560 292.192 C 235.353 292.320,235.183 292.245,235.183 292.026 C 235.183 291.807,235.046 291.670,234.877 291.722 C 234.507 291.835,227.945 288.566,227.606 288.099 C 227.473 287.917,227.177 287.884,226.947 288.027 C 226.717 288.169,226.529 288.106,226.529 287.886 C 226.529 287.465,221.834 285.105,220.997 285.105 C 220.728 285.105,220.508 284.964,220.508 284.791 C 220.508 284.136,219.480 284.519,218.504 285.539 M257.171 303.334 C 256.812 303.914,261.167 306.158,261.672 305.653 C 261.798 305.528,261.900 305.611,261.900 305.839 C 261.900 306.244,263.319 306.901,263.876 306.754 C 264.031 306.713,264.158 306.857,264.158 307.075 C 264.158 307.665,273.114 311.896,273.918 311.686 C 274.298 311.587,274.722 311.688,274.859 311.910 C 275.018 312.166,274.861 312.234,274.432 312.095 C 274.059 311.974,274.516 312.339,275.447 312.905 C 277.710 314.281,287.929 319.215,288.523 319.219 C 288.782 319.221,288.993 319.362,288.993 319.532 C 288.993 320.033,295.007 322.909,295.465 322.626 C 295.703 322.478,295.778 322.537,295.639 322.762 C 295.341 323.244,296.417 323.712,297.024 323.365 C 297.264 323.228,297.333 323.256,297.177 323.427 C 297.022 323.598,297.530 324.025,298.306 324.376 C 299.666 324.989,300.282 325.003,300.282 324.421 C 300.282 323.962,293.754 321.171,292.944 321.284 C 292.377 321.363,292.318 321.303,292.707 321.039 C 293.094 320.778,292.882 320.578,291.861 320.241 C 291.112 319.993,290.499 319.663,290.499 319.507 C 290.499 319.351,287.662 317.894,284.196 316.270 C 280.729 314.645,277.804 313.187,277.696 313.030 C 277.437 312.653,269.426 308.914,269.426 309.170 C 269.426 309.278,269.165 309.105,268.845 308.786 C 268.525 308.466,267.589 308.023,266.764 307.800 C 265.939 307.578,265.345 307.266,265.444 307.106 C 265.701 306.691,261.558 304.732,261.066 305.036 C 260.805 305.198,260.764 305.114,260.954 304.807 C 261.152 304.486,261.079 304.382,260.733 304.497 C 260.447 304.592,260.003 304.460,259.747 304.203 C 259.490 303.946,258.895 303.820,258.426 303.923 C 257.819 304.057,257.717 304.008,258.075 303.754 C 258.484 303.463,258.469 303.356,257.993 303.173 C 257.672 303.050,257.302 303.122,257.171 303.334 M300.518 324.631 C 300.388 324.761,300.282 325.000,300.282 325.164 C 300.282 325.466,311.307 331.014,312.309 331.216 C 312.611 331.277,313.151 331.583,313.508 331.897 C 313.866 332.211,317.005 333.801,320.484 335.431 C 323.964 337.061,326.896 338.520,326.999 338.673 C 327.103 338.827,328.881 339.752,330.950 340.728 C 336.884 343.529,337.161 343.635,337.144 343.091 C 337.132 342.705,331.183 339.620,330.413 339.599 C 330.295 339.596,329.986 339.459,329.727 339.295 C 329.468 339.130,329.257 339.117,329.257 339.264 C 329.257 339.411,328.918 339.141,328.504 338.664 C 328.090 338.187,327.749 337.949,327.746 338.136 C 327.743 338.323,327.612 338.274,327.455 338.028 C 327.076 337.432,323.183 335.642,322.791 335.884 C 322.622 335.989,322.484 335.885,322.484 335.654 C 322.484 335.422,322.314 335.338,322.107 335.466 C 321.900 335.594,321.731 335.509,321.731 335.278 C 321.731 335.046,321.562 334.961,321.355 335.089 C 321.148 335.217,320.978 335.159,320.978 334.960 C 320.978 334.538,318.769 333.629,318.024 333.744 C 317.745 333.787,317.628 333.642,317.764 333.421 C 317.974 333.081,317.544 332.939,316.622 333.044 C 316.503 333.058,316.102 332.718,315.730 332.290 C 314.925 331.362,309.426 328.732,308.424 328.796 C 308.038 328.820,307.823 328.741,307.944 328.619 C 308.066 328.497,307.392 327.986,306.447 327.482 C 305.501 326.979,304.634 326.661,304.519 326.776 C 304.404 326.891,304.039 326.675,303.707 326.295 C 302.945 325.423,300.830 324.319,300.518 324.631 M45.246 329.193 C 44.941 329.387,45.543 329.736,46.939 330.176 C 48.131 330.552,49.320 330.941,49.581 331.040 C 49.881 331.155,49.975 331.013,49.838 330.654 C 49.718 330.342,48.911 329.890,48.046 329.650 C 47.180 329.410,46.303 329.142,46.096 329.053 C 45.889 328.965,45.506 329.028,45.246 329.193 M50.423 330.746 C 50.423 330.972,50.889 331.327,51.458 331.534 C 52.027 331.741,53.001 332.162,53.622 332.468 C 55.528 333.409,69.232 337.583,69.623 337.342 C 69.825 337.217,69.991 337.305,69.991 337.538 C 69.991 337.799,70.298 337.865,70.790 337.708 C 71.328 337.538,71.506 337.591,71.333 337.871 C 71.186 338.108,71.329 338.288,71.662 338.288 C 71.984 338.288,72.248 338.430,72.248 338.605 C 72.248 338.875,74.681 339.793,75.396 339.793 C 76.064 339.793,75.509 339.023,74.694 338.819 C 74.177 338.689,73.754 338.463,73.754 338.316 C 73.754 337.968,69.689 336.689,68.585 336.689 C 68.116 336.689,67.733 336.512,67.733 336.297 C 67.733 336.081,67.621 336.016,67.485 336.152 C 67.349 336.288,67.010 336.211,66.733 335.981 C 66.455 335.750,66.228 335.688,66.228 335.842 C 66.228 335.996,65.974 335.911,65.663 335.654 C 65.353 335.396,65.099 335.311,65.099 335.466 C 65.099 335.620,64.863 335.551,64.575 335.312 C 64.288 335.073,63.526 334.840,62.883 334.795 C 62.240 334.750,61.713 334.606,61.713 334.475 C 61.712 334.344,60.034 333.753,57.983 333.162 C 55.801 332.533,54.347 331.929,54.480 331.707 C 54.605 331.498,54.388 331.580,53.998 331.891 C 53.583 332.221,53.407 332.260,53.572 331.984 C 53.754 331.682,53.544 331.397,52.986 331.188 C 50.995 330.443,50.423 330.344,50.423 330.746 M337.535 343.314 C 337.535 343.946,339.423 344.829,339.854 344.398 C 340.034 344.219,339.591 343.796,338.856 343.445 C 337.827 342.955,337.535 342.925,337.535 343.314 M340.142 344.702 C 339.461 345.123,339.467 345.127,343.274 346.881 C 345.631 347.968,346.566 348.249,346.566 347.871 C 346.566 347.533,346.341 347.429,345.940 347.583 C 345.566 347.726,345.408 347.671,345.548 347.445 C 345.782 347.066,343.576 345.814,342.673 345.814 C 342.409 345.814,341.847 345.492,341.425 345.099 C 340.929 344.636,340.475 344.496,340.142 344.702 M347.355 348.426 C 347.056 348.610,347.653 349.025,349.013 349.577 C 350.182 350.051,351.365 350.667,351.643 350.944 C 352.464 351.766,364.171 357.105,365.096 357.080 C 366.009 357.055,356.832 352.498,354.404 351.771 C 353.523 351.507,352.961 351.106,352.958 350.740 C 352.953 350.216,352.906 350.212,352.587 350.706 C 352.259 351.213,352.049 350.979,352.166 350.235 C 352.191 350.080,352.147 349.953,352.069 349.953 C 351.992 349.953,351.004 349.544,349.875 349.045 C 348.728 348.538,347.616 348.264,347.355 348.426 " stroke="none" fill-rule="evenodd"></path><path id="path3" d="" stroke="none" fill-rule="evenodd"></path><path id="path4" d="" stroke="none" fill-rule="evenodd"></path></g></svg>