<?xml version="1.0" encoding="iso-8859-1"?>
<!-- Generator: Adobe Illustrator 19.0.0, SVG Export Plug-In . SVG Version: 6.00 Build 0)  -->
<svg version="1.1" xmlns="http://www.w3.org/2000/svg"  x="0px" y="0px"
     width="16px" height="16px"
	 viewBox="0 0 512 512" xml:space="preserve">
<g>
	<g>
		<path d="M430.298,152.511c-4.513,0-8.17,3.658-8.17,8.17v310.468c0,13.516-10.996,24.511-24.511,24.511H114.383
			c-13.516,0-24.511-10.995-24.511-24.511V160.681c0-4.512-3.658-8.17-8.17-8.17s-8.17,3.658-8.17,8.17v310.468
			c0,22.526,18.325,40.851,40.851,40.851h283.234c22.526,0,40.851-18.325,40.851-40.851V160.681
			C438.468,156.169,434.811,152.511,430.298,152.511z"/>
	</g>
</g>
<g>
	<g>
		<path d="M168.851,152.511c-4.512,0-8.17,3.658-8.17,8.17v122.553c0,4.512,3.658,8.17,8.17,8.17s8.17-3.658,8.17-8.17V160.681
			C177.021,156.169,173.363,152.511,168.851,152.511z"/>
	</g>
</g>
<g>
	<g>
		<path d="M168.851,307.745c-4.512,0-8.17,3.658-8.17,8.17v122.553c0,4.512,3.658,8.17,8.17,8.17s8.17-3.658,8.17-8.17V315.915
			C177.021,311.403,173.363,307.745,168.851,307.745z"/>
	</g>
</g>
<g>
	<g>
		<path d="M256,152.511c-4.512,0-8.17,3.658-8.17,8.17v277.787c0,4.512,3.658,8.17,8.17,8.17c4.513,0,8.17-3.658,8.17-8.17V160.681
			C264.17,156.169,260.513,152.511,256,152.511z"/>
	</g>
</g>
<g>
	<g>
		<path d="M343.149,152.511c-4.513,0-8.17,3.658-8.17,8.17v277.787c0,4.512,3.657,8.17,8.17,8.17s8.17-3.658,8.17-8.17V160.681
			C351.319,156.169,347.662,152.511,343.149,152.511z"/>
	</g>
</g>
<g>
	<g>
		<path d="M462.979,119.83h-13.617V95.319c0-22.526-18.325-40.851-40.851-40.851h-89.872V40.851C318.638,18.325,300.313,0,277.787,0
			h-43.574c-22.526,0-40.851,18.325-40.851,40.851v13.617h-89.872c-22.526,0-40.851,18.325-40.851,40.851v24.511H49.021
			c-4.512,0-8.17,3.658-8.17,8.17s3.658,8.17,8.17,8.17h413.957c4.513,0,8.17-3.658,8.17-8.17S467.492,119.83,462.979,119.83z
			 M209.702,40.851c0-13.516,10.995-24.511,24.511-24.511h43.574c13.515,0,24.511,10.995,24.511,24.511v13.617h-92.596V40.851z
			 M433.021,119.83H78.979V95.319c0-13.516,10.995-24.511,24.511-24.511h305.021c13.515,0,24.511,10.995,24.511,24.511V119.83z"/>
	</g>
</g>
<g>
</g>
<g>
</g>
<g>
</g>
<g>
</g>
<g>
</g>
<g>
</g>
<g>
</g>
<g>
</g>
<g>
</g>
<g>
</g>
<g>
</g>
<g>
</g>
<g>
</g>
<g>
</g>
<g>
</g>
</svg>
